<svg width="19" height="20" viewBox="0 0 19 20" fill="none" xmlns="http://www.w3.org/2000/svg">
<path fill-rule="evenodd" clip-rule="evenodd" d="M10.96 0.809901L16.96 4.1399C17.9136 4.67112 18.5034 5.67835 18.5 6.7699V13.2299C18.5034 14.3214 17.9136 15.3287 16.96 15.8599L10.96 19.1899C10.0524 19.6956 8.94768 19.6956 8.04001 19.1899L2.04001 15.8599C1.08644 15.3287 0.496656 14.3214 0.500014 13.2299V6.7699C0.496656 5.67835 1.08644 4.67112 2.04001 4.1399L8.04001 0.809901C8.94768 0.304252 10.0524 0.304252 10.96 0.809901ZM10.73 9.8699L14.96 7.5199H14.92C15.2414 7.29319 15.333 6.85674 15.13 6.5199C14.929 6.17054 14.4902 6.0389 14.13 6.2199L9.91001 8.5699C9.62697 8.71253 9.29306 8.71253 9.01001 8.5699L4.79001 6.2199C4.42987 6.0389 3.99105 6.17054 3.79001 6.5199C3.60187 6.87697 3.73003 7.3189 4.08001 7.5199L8.35001 9.8699C8.51053 9.96102 8.68188 10.0316 8.86001 10.0799V14.4999C8.90228 14.8517 9.20072 15.1164 9.55501 15.1164C9.90931 15.1164 10.2077 14.8517 10.25 14.4999V10.0699C10.4167 10.0205 10.5776 9.95341 10.73 9.8699Z" fill="#A9E34B"/>
</svg>
