<svg width="24" height="24" viewBox="0 0 24 24" fill="none" xmlns="http://www.w3.org/2000/svg">
<g id="devices/charging-battrey">
<g id="Icon">
<path d="M7.2707 16.66H5.0007C4.143 16.6382 3.46392 15.9278 3.4807 15.07V8.07001C3.46392 7.2122 4.143 6.50185 5.0007 6.48001H10.7007C11.1094 6.48001 11.4407 6.1487 11.4407 5.74001C11.4407 5.33132 11.1094 5.00001 10.7007 5.00001H5.0007C4.19277 4.99979 3.4189 5.32545 2.85424 5.90329C2.28957 6.48113 1.98184 7.2623 2.0007 8.07001V15.07C1.98184 15.8777 2.28957 16.6589 2.85424 17.2367C3.4189 17.8146 4.19277 18.1402 5.0007 18.14H7.2707C7.67939 18.14 8.0107 17.8087 8.0107 17.4C8.0107 16.9913 7.67939 16.66 7.2707 16.66Z" fill="#E9FAC8"/>
<path fill-rule="evenodd" clip-rule="evenodd" d="M19.3407 7.82H19.7007C20.6469 7.80325 21.4288 8.55395 21.4507 9.5V13.64C21.4288 14.5861 20.6469 15.3368 19.7007 15.32H19.3307C19.2354 16.9062 17.9197 18.1429 16.3307 18.14H11.8007C11.392 18.14 11.0607 17.8087 11.0607 17.4C11.0607 16.9913 11.392 16.66 11.8007 16.66H16.3307C17.1884 16.6382 17.8675 15.9278 17.8507 15.07V8.07C17.8675 7.21219 17.1884 6.50184 16.3307 6.48H15.2007C14.792 6.48 14.4607 6.1487 14.4607 5.74C14.4607 5.33131 14.792 5 15.2007 5H16.3407C17.9297 4.99714 19.2454 6.23383 19.3407 7.82ZM19.7007 13.82C19.8407 13.82 19.9507 13.73 19.9507 13.64V9.5C19.9507 9.41001 19.8407 9.32 19.7007 9.32H19.3707V13.82H19.7007Z" fill="#E9FAC8"/>
<path d="M14.8007 11.5C14.6188 11.0482 14.1875 10.7463 13.7007 10.73H9.7007L13.8507 6.57001C14.1694 6.23737 14.1694 5.71265 13.8507 5.38001C13.6931 5.22185 13.479 5.13295 13.2557 5.13295C13.0324 5.13295 12.8183 5.22185 12.6607 5.38001L7.8007 10.27C7.43656 10.629 7.32775 11.1735 7.52597 11.6448C7.72419 12.1161 8.18947 12.4192 8.7007 12.41H12.6407L8.4907 16.57C8.33253 16.7276 8.24363 16.9417 8.24363 17.165C8.24363 17.3883 8.33253 17.6024 8.4907 17.76C8.64699 17.9162 8.85972 18.0028 9.0807 18C9.30124 18.0006 9.51316 17.9144 9.6707 17.76L14.5307 12.9C14.9041 12.5355 15.0118 11.9773 14.8007 11.5Z" fill="#E9FAC8"/>
</g>
</g>
</svg>
