<svg width="18" height="21" viewBox="0 0 18 21" fill="none" xmlns="http://www.w3.org/2000/svg">
<path fill-rule="evenodd" clip-rule="evenodd" d="M1.51709 8.50008V7.75008C1.51709 7.75008 1.51498 6.25437 2.08823 4.87174C2.08823 4.87174 2.66148 3.4891 3.72206 2.43293C3.72206 2.43293 4.78263 1.37676 6.16763 0.809261C6.16763 0.809261 7.55264 0.241762 9.04938 0.250091C9.04938 0.250091 10.5713 0.261619 11.9572 0.869615C11.9572 0.869615 13.2905 1.45457 14.317 2.50894C14.317 2.50894 15.3394 3.55919 15.9002 4.91345C15.9002 4.91345 16.4796 6.31283 16.4796 7.83446V8.50008C16.4796 8.50008 16.4796 12.3904 17.7005 14.4993C17.7005 14.4993 17.9016 14.8475 17.9019 15.2488C17.9019 15.2488 17.9023 15.65 17.7023 15.9978C17.7023 15.9978 17.5023 16.3456 17.1554 16.5471C17.1554 16.5471 16.8084 16.7487 16.4072 16.7501L1.59209 16.7501C1.59209 16.7501 1.18823 16.7487 0.841295 16.5471C0.841295 16.5471 0.494364 16.3456 0.294368 15.9978C0.294368 15.9978 0.0943721 15.65 0.094727 15.2488C0.094727 15.2488 0.0950829 14.8475 0.295694 14.5001C0.295694 14.5001 1.51709 12.3904 1.51709 8.50008ZM3.01709 8.50008C3.01709 8.50008 3.01709 12.7933 1.59473 15.2501L16.4019 15.2501C16.4019 15.2501 14.9796 12.7926 14.9796 8.50008V7.83446C14.9796 7.83446 14.9796 5.33991 13.2422 3.55528C13.2422 3.55528 11.5029 1.76872 9.04104 1.75007C9.04104 1.75007 7.84402 1.74341 6.73636 2.19726C6.73636 2.19726 5.6287 2.65112 4.78051 3.49579C4.78051 3.49579 3.93232 4.34046 3.47386 5.44623C3.47386 5.44623 3.0154 6.55199 3.01709 7.75008V8.50008Z" fill="#6E7071"/>
<path d="M12.7498 16.75V16C12.7498 15.5858 12.414 15.25 11.9998 15.25C11.5855 15.25 11.2498 15.5858 11.2498 16V16.75C11.2498 17.682 10.5907 18.341 10.5907 18.341C9.93174 19 8.99976 19 8.99976 19C8.06778 19 7.40877 18.341 7.40877 18.341C6.74976 17.682 6.74976 16.75 6.74976 16.75V16C6.74976 15.5858 6.41397 15.25 5.99976 15.25C5.58554 15.25 5.24976 15.5858 5.24976 16L5.24976 16.75C5.24976 18.3033 6.34811 19.4016 6.34811 19.4016C7.44646 20.5 8.99976 20.5 8.99976 20.5C10.5531 20.5 11.6514 19.4017 11.6514 19.4017C12.7498 18.3033 12.7498 16.75 12.7498 16.75Z" fill="#6E7071"/>
</svg>
