<?xml version="1.0" encoding="utf-8"?><svg viewBox="0 0 24 24" xmlns="http://www.w3.org/2000/svg" xmlns:xlink="http://www.w3.org/1999/xlink"><style>:root>svg{display:none}:root>svg:target{display:block}</style><svg fill="none" viewBox="0 0 18 21" id="ring-icon" xmlns="http://www.w3.org/2000/svg"><path fill-rule="evenodd" clip-rule="evenodd" d="M1.517 8.5v-.75s-.002-1.496.571-2.878c0 0 .573-1.383 1.634-2.44 0 0 1.06-1.055 2.446-1.623 0 0 1.385-.567 2.881-.559 0 0 1.522.012 2.908.62 0 0 1.333.585 2.36 1.639 0 0 1.022 1.05 1.583 2.404 0 0 .58 1.4.58 2.921V8.5s0 3.89 1.22 6c0 0 .202.348.202.749 0 0 0 .401-.2.749 0 0-.2.348-.547.55 0 0-.347.2-.748.202H1.592s-.404-.001-.75-.203c0 0-.348-.201-.548-.55 0 0-.2-.347-.2-.748 0 0 .001-.402.202-.749 0 0 1.221-2.11 1.221-6Zm1.5 0s0 4.293-1.422 6.75h14.807S14.98 12.793 14.98 8.5v-.666s0-2.494-1.738-4.279c0 0-1.74-1.786-4.201-1.805 0 0-1.197-.007-2.305.447 0 0-1.107.454-1.955 1.299 0 0-.849.844-1.307 1.95 0 0-.459 1.106-.457 2.304v.75Z" fill="#6E7071"/><path d="M12.75 16.75V16a.75.75 0 0 0-1.5 0v.75c0 .932-.66 1.591-.66 1.591C9.933 19 9 19 9 19c-.932 0-1.591-.659-1.591-.659-.66-.659-.66-1.591-.66-1.591V16a.75.75 0 0 0-1.5 0v.75c0 1.553 1.1 2.652 1.1 2.652C7.445 20.5 8.998 20.5 8.998 20.5c1.554 0 2.652-1.098 2.652-1.098 1.099-1.099 1.099-2.652 1.099-2.652Z" fill="#6E7071"/></svg><svg fill="none" viewBox="0 0 16 16" id="search-icon" xmlns="http://www.w3.org/2000/svg"><path d="M14.35 14.356a.5.5 0 0 1-.35.144.519.519 0 0 1-.356-.144l-2.7-2.706a5.762 5.762 0 1 1 .706-.706l2.7 2.7a.501.501 0 0 1 0 .712ZM7.25 12A4.75 4.75 0 1 0 2.5 7.25 4.756 4.756 0 0 0 7.25 12Z" fill="#7A7A7A"/></svg><svg fill="none" viewBox="0 0 24 24" id="shop-icon" xmlns="http://www.w3.org/2000/svg"><path fill-rule="evenodd" clip-rule="evenodd" d="M20.74 6.86 22 15.2c.51 3.65-2 6.97-5.4 7H7.34c-3.34 0-5.88-3.35-5.34-7l1.26-8.34a5.61 5.61 0 0 1 5.34-5h6.8a5.61 5.61 0 0 1 5.34 5Zm-4.11 13.81a3.66 3.66 0 0 0 2.77-1.33 4.88 4.88 0 0 0 1.09-3.92l-1.23-8.34a4.11 4.11 0 0 0-3.86-3.75H8.6a4.11 4.11 0 0 0-3.86 3.75l-1.23 8.34a4.88 4.88 0 0 0 1.09 3.92 3.66 3.66 0 0 0 2.77 1.33h9.26Z" fill="#E9FAC8"/><path d="M15.15 7.06a.75.75 0 0 0-.75.75 2.4 2.4 0 1 1-4.8 0 .75.75 0 1 0-1.5 0 3.9 3.9 0 0 0 7.8 0 .76.76 0 0 0-.75-.75Z" fill="#E9FAC8"/></svg></svg>