<svg width="205" height="419" viewBox="0 0 205 419" fill="none" xmlns="http://www.w3.org/2000/svg">
<path d="M102.501 91.395L58.5613 116.765L102.501 142.135L146.441 116.765L102.501 91.395Z" fill="#455A64"/>
<path d="M119.701 132.205L75.7613 106.835L84.5513 101.755L128.491 127.125L119.701 132.205Z" fill="#37474F"/>
<path d="M58.5613 116.765V157.355L102.501 182.725V142.135L58.5613 116.765Z" fill="#263238"/>
<path d="M102.501 142.135V182.725L146.441 157.395V116.765L102.501 142.135Z" fill="#37474F"/>
<path d="M128.491 127.125V135.055L127.561 134.875L126.731 136.085L125.791 135.895L124.981 137.095L124.041 136.905L123.221 138.115L122.281 137.925L121.461 139.135L120.511 138.945L119.701 140.145V132.205L128.491 127.125Z" fill="#263238"/>
<path d="M102.501 142.135L103.371 181.135L135.551 163.645L102.501 182.725V142.135Z" fill="#455A64"/>
<g opacity="0.8">
<path d="M114.391 171.755C114.36 171.755 114.329 171.749 114.301 171.737C114.272 171.725 114.246 171.707 114.225 171.684C114.203 171.662 114.187 171.635 114.176 171.606C114.165 171.577 114.16 171.546 114.161 171.515V166.215C114.16 166.184 114.165 166.153 114.176 166.124C114.187 166.095 114.203 166.068 114.225 166.046C114.246 166.024 114.272 166.006 114.301 165.993C114.329 165.981 114.36 165.975 114.391 165.975C114.455 165.975 114.516 166 114.561 166.045C114.606 166.09 114.631 166.151 114.631 166.215V171.565C114.62 171.62 114.589 171.669 114.545 171.703C114.502 171.738 114.447 171.756 114.391 171.755Z" fill="#E0E0E0"/>
<path d="M113.701 168.055H113.611C113.553 168.031 113.507 167.984 113.483 167.926C113.459 167.869 113.458 167.803 113.481 167.745L114.331 165.795L115.261 166.885C115.283 166.906 115.301 166.932 115.313 166.96C115.325 166.989 115.331 167.019 115.331 167.05C115.331 167.081 115.325 167.111 115.313 167.139C115.301 167.168 115.283 167.193 115.261 167.215C115.216 167.255 115.157 167.277 115.096 167.277C115.036 167.277 114.977 167.255 114.931 167.215L114.481 166.695L113.941 167.945C113.915 167.984 113.879 168.015 113.837 168.034C113.795 168.054 113.748 168.061 113.701 168.055Z" fill="#E0E0E0"/>
<path d="M116.581 170.505C116.55 170.505 116.519 170.499 116.489 170.487C116.46 170.475 116.434 170.457 116.412 170.435C116.389 170.413 116.372 170.386 116.36 170.357C116.347 170.328 116.341 170.297 116.341 170.265V164.965C116.341 164.901 116.367 164.84 116.412 164.795C116.457 164.75 116.518 164.725 116.581 164.725C116.645 164.725 116.706 164.75 116.751 164.795C116.796 164.84 116.821 164.901 116.821 164.965V170.265C116.821 170.329 116.796 170.39 116.751 170.435C116.706 170.48 116.645 170.505 116.581 170.505Z" fill="#E0E0E0"/>
<path d="M115.891 166.805H115.791C115.763 166.793 115.737 166.776 115.715 166.753C115.693 166.731 115.676 166.705 115.665 166.676C115.654 166.647 115.649 166.616 115.65 166.585C115.651 166.554 115.658 166.523 115.671 166.495L116.511 164.555L117.451 165.635C117.473 165.657 117.491 165.682 117.503 165.711C117.515 165.739 117.521 165.769 117.521 165.8C117.521 165.831 117.515 165.861 117.503 165.89C117.491 165.918 117.473 165.944 117.451 165.965C117.429 165.988 117.402 166.005 117.373 166.017C117.344 166.03 117.313 166.036 117.281 166.036C117.25 166.036 117.218 166.03 117.189 166.017C117.16 166.005 117.134 165.988 117.111 165.965L116.671 165.445L116.121 166.705C116.098 166.743 116.063 166.773 116.022 166.791C115.981 166.809 115.935 166.814 115.891 166.805Z" fill="#E0E0E0"/>
</g>
<g opacity="0.8">
<path d="M108.091 175.345C108.001 175.346 107.912 175.325 107.831 175.285C107.738 175.224 107.663 175.138 107.614 175.038C107.565 174.938 107.543 174.826 107.551 174.715V174.065C107.55 174.034 107.555 174.003 107.566 173.974C107.577 173.945 107.594 173.918 107.615 173.896C107.637 173.874 107.662 173.856 107.691 173.844C107.719 173.831 107.75 173.825 107.781 173.825C107.845 173.825 107.906 173.85 107.951 173.895C107.996 173.941 108.021 174.002 108.021 174.065V174.715C108.005 174.764 108.005 174.816 108.021 174.865C108.021 174.865 108.101 174.865 108.181 174.865C108.328 174.729 108.443 174.563 108.519 174.379C108.595 174.194 108.63 173.995 108.621 173.795V171.085C108.621 171.054 108.628 171.023 108.64 170.995C108.652 170.966 108.67 170.94 108.692 170.919C108.715 170.897 108.741 170.881 108.77 170.87C108.799 170.859 108.83 170.854 108.861 170.855C108.922 170.855 108.981 170.879 109.024 170.923C109.067 170.966 109.091 171.024 109.091 171.085V173.795C109.103 174.077 109.049 174.358 108.933 174.615C108.816 174.872 108.641 175.098 108.421 175.275C108.318 175.322 108.205 175.346 108.091 175.345Z" fill="#E0E0E0"/>
<path d="M105.601 173.165V172.755C105.655 171.708 105.954 170.687 106.475 169.777C106.997 168.867 107.725 168.092 108.601 167.515C108.916 167.25 109.304 167.087 109.714 167.05C110.124 167.014 110.535 167.104 110.892 167.31C111.248 167.516 111.533 167.826 111.706 168.199C111.88 168.573 111.934 168.99 111.861 169.395V169.565L105.601 173.165ZM110.031 167.565C109.613 167.585 109.206 167.713 108.851 167.935C108.1 168.428 107.464 169.078 106.986 169.839C106.508 170.6 106.199 171.454 106.081 172.345L111.401 169.275C111.419 168.976 111.361 168.678 111.234 168.407C111.106 168.136 110.913 167.902 110.671 167.725C110.474 167.621 110.254 167.566 110.031 167.565Z" fill="#E0E0E0"/>
</g>
<path d="M120.081 131.985L76.1313 106.615L84.9213 101.545L128.871 126.915L120.081 131.985Z" fill="#24FE41"/>
<path d="M128.871 126.915L128.861 134.605L127.931 134.425L127.111 135.625L126.171 135.445L125.361 136.645L124.421 136.455L123.591 137.665L122.651 137.475L121.831 138.685L120.891 138.495L120.081 139.695V131.985L128.871 126.915Z" fill="#24FE41"/>
<path opacity="0.15" d="M128.871 126.915L128.861 134.605L127.931 134.425L127.111 135.635L126.171 135.445L125.361 136.645L124.421 136.465L123.591 137.665L122.651 137.475L121.831 138.685L120.891 138.495L120.081 139.695V131.985L128.871 126.915Z" fill="black"/>
<path opacity="0.5" d="M76.1313 106.615L84.9213 102.125L128.871 126.915L84.9213 101.545L76.1313 106.615Z" fill="white"/>
<path d="M106.531 55.145H98.2313V61.185H106.531V55.145Z" fill="#455A64"/>
<path d="M106.531 61.1748L111.741 55.7748V52.1748L106.531 55.1848V61.1748Z" fill="#37474F"/>
<path d="M98.2313 61.1748L93.0312 55.7748V52.1748L98.2313 55.1848V61.1748Z" fill="#37474F"/>
<path d="M102.501 142.565C102.38 142.563 102.265 142.513 102.179 142.428C102.093 142.342 102.044 142.226 102.041 142.105L101.931 58.1051C101.93 58.0452 101.941 57.9856 101.963 57.9299C101.985 57.8741 102.018 57.8233 102.059 57.7804C102.101 57.7376 102.151 57.7036 102.207 57.6803C102.262 57.6571 102.321 57.6451 102.381 57.6451C102.441 57.6438 102.501 57.6545 102.557 57.6765C102.612 57.6985 102.663 57.7314 102.706 57.7733C102.749 57.8153 102.783 57.8653 102.806 57.9206C102.829 57.9758 102.841 58.0352 102.841 58.0951L102.961 142.095C102.959 142.216 102.909 142.332 102.824 142.418C102.738 142.503 102.622 142.553 102.501 142.555V142.565Z" fill="#EBEBEB"/>
<path d="M146.441 117.225C146.363 117.224 146.286 117.203 146.218 117.164C146.15 117.126 146.093 117.071 146.051 117.005L109.221 56.9149C109.183 56.8637 109.155 56.8051 109.141 56.7427C109.126 56.6803 109.125 56.6155 109.136 56.5525C109.148 56.4896 109.173 56.4298 109.209 56.377C109.246 56.3242 109.293 56.2796 109.347 56.246C109.402 56.2124 109.463 56.1906 109.526 56.1819C109.59 56.1733 109.655 56.178 109.716 56.1958C109.778 56.2136 109.835 56.244 109.884 56.2852C109.933 56.3264 109.973 56.3773 110.001 56.4349L146.831 116.565C146.864 116.616 146.886 116.673 146.896 116.732C146.906 116.792 146.904 116.853 146.89 116.912C146.876 116.971 146.85 117.026 146.814 117.075C146.779 117.123 146.733 117.164 146.681 117.195C146.605 117.224 146.523 117.234 146.441 117.225Z" fill="#EBEBEB"/>
<path d="M58.4013 117.225C58.3165 117.223 58.2337 117.199 58.1613 117.155C58.0703 117.09 58.0066 116.994 57.9825 116.885C57.9585 116.776 57.9759 116.662 58.0313 116.565L94.8612 56.4749C94.8895 56.4174 94.9295 56.3664 94.9786 56.3252C95.0277 56.2841 95.0849 56.2536 95.1465 56.2358C95.208 56.2181 95.2726 56.2133 95.3361 56.222C95.3996 56.2306 95.4606 56.2524 95.5152 56.286C95.5698 56.3196 95.6167 56.3642 95.6531 56.417C95.6894 56.4698 95.7143 56.5296 95.7261 56.5926C95.738 56.6556 95.7366 56.7203 95.722 56.7827C95.7073 56.8451 95.6799 56.9037 95.6412 56.9549L58.8113 117.045C58.7633 117.107 58.7007 117.155 58.6291 117.187C58.5575 117.218 58.4792 117.231 58.4013 117.225Z" fill="#EBEBEB"/>
<path d="M147.031 34.6948C143.901 34.6948 142.911 14.4048 142.911 14.4048H151.151C151.151 14.4048 150.151 34.6948 147.031 34.6948Z" fill="#37474F"/>
<path d="M144.141 12.7247C145.043 12.2663 146.04 12.0273 147.051 12.0273C148.063 12.0273 149.06 12.2663 149.961 12.7247C151.571 13.6447 151.571 15.1547 149.961 16.0847C149.06 16.5432 148.063 16.7821 147.051 16.7821C146.04 16.7821 145.043 16.5432 144.141 16.0847C142.531 15.1547 142.531 13.6447 144.141 12.7247Z" fill="#455A64"/>
<path d="M57.9513 34.6948C61.0713 34.6948 62.0613 14.4048 62.0613 14.4048H53.8313C53.8313 14.4048 54.8313 34.6948 57.9513 34.6948Z" fill="#37474F"/>
<path d="M60.8612 12.7247C59.9597 12.2663 58.9626 12.0273 57.9512 12.0273C56.9399 12.0273 55.9428 12.2663 55.0412 12.7247C53.4312 13.6547 53.4312 15.1547 55.0412 16.0847C55.9428 16.5432 56.9399 16.7821 57.9512 16.7821C58.9626 16.7821 59.9597 16.5432 60.8612 16.0847C62.4612 15.1547 62.4612 13.6547 60.8612 12.7247Z" fill="#455A64"/>
<path d="M58.7213 23.3647L89.9113 48.5747L58.7213 73.7847L61.8413 75.5847L102.381 55.7747L142.931 75.5847L146.051 73.7847L114.861 48.5747L146.051 23.3647L142.931 21.5547L102.381 41.3647L61.8313 21.5547L58.7213 23.3647Z" fill="#E0E0E0"/>
<path d="M61.8413 71.9851L102.381 48.5751L142.931 71.9851L146.051 70.1851L114.861 41.3651L146.051 19.7551L142.931 17.9551L102.381 34.1651L61.8313 17.9551L58.7213 19.7551L89.9113 41.3651L58.7213 70.1851L61.8413 71.9851Z" fill="#F5F5F5"/>
<path d="M142.931 71.9851V75.5851L146.051 73.7851V70.1851L142.931 71.9851Z" fill="#E0E0E0"/>
<path d="M102.381 48.5747V55.7747L142.931 75.5847V71.9847L102.381 48.5747Z" fill="#EBEBEB"/>
<path d="M58.7213 19.7549L89.9113 41.3649L85.0113 45.2249L58.7213 23.3649V19.7549Z" fill="#EBEBEB"/>
<path d="M114.861 41.3649L119.761 45.2249L146.051 23.3649V19.7549L114.861 41.3649Z" fill="#E0E0E0"/>
<path d="M108.031 38.0747H96.7412C96.4154 38.0747 96.1512 38.3389 96.1512 38.6647V44.0747C96.1512 44.4006 96.4154 44.6647 96.7412 44.6647H108.031C108.357 44.6647 108.621 44.4006 108.621 44.0747V38.6647C108.621 38.3389 108.357 38.0747 108.031 38.0747Z" fill="#24FE41"/>
<path d="M61.8413 71.9851V75.5851L58.7213 73.7851V70.1851L61.8413 71.9851Z" fill="#EBEBEB"/>
<path d="M146.511 89.655C143.381 89.655 142.391 69.355 142.391 69.355H150.621C150.621 69.355 149.621 89.655 146.511 89.655Z" fill="#37474F"/>
<path d="M143.601 67.6749C144.503 67.2165 145.5 66.9775 146.511 66.9775C147.523 66.9775 148.52 67.2165 149.421 67.6749C151.031 68.6049 151.031 70.1149 149.421 71.0349C148.52 71.4934 147.523 71.7323 146.511 71.7323C145.5 71.7323 144.503 71.4934 143.601 71.0349C142.031 70.1149 142.031 68.5649 143.601 67.6749Z" fill="#455A64"/>
<path d="M58.2613 89.655C61.3913 89.655 62.3813 69.355 62.3813 69.355H54.1413C54.1413 69.355 55.1413 89.655 58.2613 89.655Z" fill="#37474F"/>
<path d="M61.1713 67.6749C60.2698 67.2165 59.2727 66.9775 58.2613 66.9775C57.2499 66.9775 56.2528 67.2165 55.3513 67.6749C53.7413 68.6049 53.7413 70.1149 55.3513 71.0349C56.2528 71.4934 57.2499 71.7323 58.2613 71.7323C59.2727 71.7323 60.2698 71.4934 61.1713 71.0349C62.7813 70.1149 62.7813 68.5649 61.1713 67.6749Z" fill="#455A64"/>
<path opacity="0.3" d="M162.571 59.1149L146.511 68.3849L130.451 59.1149C139.311 53.9949 153.691 53.9949 162.571 59.1149Z" fill="#24FE41"/>
<path opacity="0.1" d="M162.571 77.6547L146.511 68.3847L162.571 59.1147C171.431 64.2347 171.431 72.5647 162.571 77.6547Z" fill="#24FE41"/>
<path opacity="0.3" d="M162.571 77.6548C153.691 82.7748 139.311 82.7748 130.451 77.6548L146.511 68.3848L162.571 77.6548Z" fill="#24FE41"/>
<path opacity="0.1" d="M146.511 68.3847L130.451 77.6547C121.591 72.5347 121.591 64.2347 130.451 59.1147L146.511 68.3847Z" fill="#24FE41"/>
<path d="M148.881 69.5651V68.5651H148.101C147.603 68.3328 147.061 68.2124 146.511 68.2124C145.962 68.2124 145.419 68.3328 144.921 68.5651H144.141V69.5651C144.155 69.7787 144.226 69.9846 144.348 70.1608C144.469 70.3369 144.636 70.4767 144.831 70.5651C145.351 70.8263 145.925 70.9624 146.506 70.9624C147.088 70.9624 147.662 70.8263 148.181 70.5651C148.378 70.4781 148.547 70.3389 148.671 70.1627C148.794 69.9864 148.867 69.7798 148.881 69.5651Z" fill="#24FE41"/>
<path opacity="0.3" d="M148.881 69.5651V68.5651H148.101C147.603 68.3328 147.061 68.2124 146.511 68.2124C145.962 68.2124 145.419 68.3328 144.921 68.5651H144.141V69.5651C144.155 69.7787 144.226 69.9846 144.348 70.1608C144.469 70.3369 144.636 70.4767 144.831 70.5651C145.351 70.8263 145.925 70.9624 146.506 70.9624C147.088 70.9624 147.662 70.8263 148.181 70.5651C148.378 70.4781 148.547 70.3389 148.671 70.1627C148.794 69.9864 148.867 69.7798 148.881 69.5651Z" fill="black"/>
<path d="M148.181 67.5647C147.662 67.3035 147.088 67.1675 146.506 67.1675C145.925 67.1675 145.351 67.3035 144.831 67.5647C144.615 67.6189 144.423 67.7438 144.286 67.9195C144.149 68.0953 144.074 68.3118 144.074 68.5347C144.074 68.7576 144.149 68.9742 144.286 69.1499C144.423 69.3256 144.615 69.4505 144.831 69.5047C145.351 69.7659 145.925 69.902 146.506 69.902C147.088 69.902 147.662 69.7659 148.181 69.5047C148.397 69.4505 148.589 69.3256 148.727 69.1499C148.864 68.9742 148.938 68.7576 148.938 68.5347C148.938 68.3118 148.864 68.0953 148.727 67.9195C148.589 67.7438 148.397 67.6189 148.181 67.5647Z" fill="#24FE41"/>
<path d="M147.341 68.0749C147.084 67.9463 146.799 67.8794 146.511 67.8794C146.223 67.8794 145.939 67.9463 145.681 68.0749C145.221 68.3449 145.221 68.7749 145.681 69.0749C145.938 69.2081 146.222 69.2776 146.511 69.2776C146.8 69.2776 147.085 69.2081 147.341 69.0749C147.801 68.7749 147.801 68.3449 147.341 68.0749Z" fill="#455A64"/>
<path opacity="0.3" d="M74.3213 59.1149L58.2613 68.3849L42.2013 59.1149C51.0313 53.9949 65.4413 53.9949 74.3213 59.1149Z" fill="#24FE41"/>
<path opacity="0.1" d="M74.3213 77.6547L58.2613 68.3847L74.3213 59.1147C83.1813 64.2347 83.1813 72.5647 74.3213 77.6547Z" fill="#24FE41"/>
<path opacity="0.3" d="M74.3213 77.6548C65.4413 82.7748 51.0713 82.7748 42.2013 77.6548L58.2613 68.3848L74.3213 77.6548Z" fill="#24FE41"/>
<path opacity="0.1" d="M58.2613 68.3847L42.2013 77.6547C33.3413 72.5347 33.3413 64.2347 42.2013 59.1147L58.2613 68.3847Z" fill="#24FE41"/>
<path d="M60.6313 69.5651V68.5651H59.8513C59.3534 68.3328 58.8107 68.2124 58.2613 68.2124C57.7119 68.2124 57.1692 68.3328 56.6713 68.5651H55.8913V69.5651C55.9057 69.7798 55.9786 69.9864 56.1019 70.1627C56.2253 70.3389 56.3945 70.4781 56.5913 70.5651C57.111 70.8263 57.6846 70.9624 58.2663 70.9624C58.848 70.9624 59.4216 70.8263 59.9413 70.5651C60.1362 70.4767 60.3033 70.3369 60.4249 70.1608C60.5464 69.9846 60.6178 69.7787 60.6313 69.5651Z" fill="#24FE41"/>
<path opacity="0.3" d="M60.6313 69.5651V68.5651H59.8513C59.3534 68.3328 58.8107 68.2124 58.2613 68.2124C57.7119 68.2124 57.1692 68.3328 56.6713 68.5651H55.8913V69.5651C55.9057 69.7798 55.9786 69.9864 56.1019 70.1627C56.2253 70.3389 56.3945 70.4781 56.5913 70.5651C57.111 70.8263 57.6846 70.9624 58.2663 70.9624C58.848 70.9624 59.4216 70.8263 59.9413 70.5651C60.1362 70.4767 60.3033 70.3369 60.4249 70.1608C60.5464 69.9846 60.6178 69.7787 60.6313 69.5651Z" fill="black"/>
<path d="M59.9413 67.5647C59.4215 67.3035 58.8479 67.1675 58.2663 67.1675C57.6846 67.1675 57.111 67.3035 56.5912 67.5647C56.375 67.6189 56.1831 67.7438 56.046 67.9195C55.9088 68.0953 55.8344 68.3118 55.8344 68.5347C55.8344 68.7576 55.9088 68.9742 56.046 69.1499C56.1831 69.3256 56.375 69.4505 56.5912 69.5047C57.111 69.7659 57.6846 69.902 58.2663 69.902C58.8479 69.902 59.4215 69.7659 59.9413 69.5047C60.1575 69.4505 60.3494 69.3256 60.4865 69.1499C60.6237 68.9742 60.6982 68.7576 60.6982 68.5347C60.6982 68.3118 60.6237 68.0953 60.4865 67.9195C60.3494 67.7438 60.1575 67.6189 59.9413 67.5647Z" fill="#24FE41"/>
<path d="M59.0913 68.0749C58.8335 67.9463 58.5494 67.8794 58.2613 67.8794C57.9732 67.8794 57.6891 67.9463 57.4313 68.0749C56.9713 68.3449 56.9713 68.7749 57.4313 69.0749C57.6877 69.2081 57.9724 69.2776 58.2613 69.2776C58.5502 69.2776 58.8349 69.2081 59.0913 69.0749C59.5513 68.7749 59.5513 68.3449 59.0913 68.0749Z" fill="#455A64"/>
<path opacity="0.3" d="M163.111 4.1149L147.031 13.3849L131.031 4.1149C139.861 -1.0051 154.231 -1.0051 163.111 4.1149Z" fill="#24FE41"/>
<path opacity="0.1" d="M163.111 22.6547L147.031 13.3847L163.091 4.11475C171.971 9.23475 171.971 17.5647 163.111 22.6547Z" fill="#24FE41"/>
<path opacity="0.3" d="M163.111 22.6548C154.231 27.7748 139.861 27.7748 130.991 22.6548L147.031 13.3848L163.111 22.6548Z" fill="#24FE41"/>
<path opacity="0.1" d="M147.031 13.3847L131.031 22.6547C122.171 17.5347 122.171 9.23475 131.031 4.11475L147.031 13.3847Z" fill="#24FE41"/>
<path d="M149.421 14.5651V13.5651H148.641C148.143 13.3328 147.601 13.2124 147.051 13.2124C146.502 13.2124 145.959 13.3328 145.461 13.5651H144.681V14.5651C144.696 14.7798 144.769 14.9864 144.892 15.1627C145.015 15.3389 145.185 15.4781 145.381 15.5651C145.901 15.8263 146.475 15.9624 147.056 15.9624C147.638 15.9624 148.212 15.8263 148.731 15.5651C148.926 15.4767 149.093 15.3369 149.215 15.1608C149.336 14.9846 149.408 14.7787 149.421 14.5651Z" fill="#24FE41"/>
<path opacity="0.3" d="M149.421 14.5651V13.5651H148.641C148.143 13.3328 147.601 13.2124 147.051 13.2124C146.502 13.2124 145.959 13.3328 145.461 13.5651H144.681V14.5651C144.696 14.7798 144.769 14.9864 144.892 15.1627C145.015 15.3389 145.185 15.4781 145.381 15.5651C145.901 15.8263 146.475 15.9624 147.056 15.9624C147.638 15.9624 148.212 15.8263 148.731 15.5651C148.926 15.4767 149.093 15.3369 149.215 15.1608C149.336 14.9846 149.408 14.7787 149.421 14.5651Z" fill="black"/>
<path d="M148.731 12.5647C148.213 12.2988 147.639 12.1602 147.056 12.1602C146.474 12.1602 145.9 12.2988 145.381 12.5647C145.169 12.6223 144.982 12.7479 144.849 12.9223C144.716 13.0967 144.644 13.3102 144.644 13.5297C144.644 13.7492 144.716 13.9626 144.849 14.137C144.982 14.3114 145.169 14.4371 145.381 14.4947C145.9 14.7606 146.474 14.8992 147.056 14.8992C147.639 14.8992 148.213 14.7606 148.731 14.4947C148.943 14.4371 149.13 14.3114 149.263 14.137C149.397 13.9626 149.469 13.7492 149.469 13.5297C149.469 13.3102 149.397 13.0967 149.263 12.9223C149.13 12.7479 148.943 12.6223 148.731 12.5647Z" fill="#24FE41"/>
<path d="M147.881 13.0749C147.623 12.9463 147.339 12.8794 147.051 12.8794C146.763 12.8794 146.479 12.9463 146.221 13.0749C145.761 13.3449 145.761 13.7749 146.221 14.0749C146.478 14.2081 146.762 14.2776 147.051 14.2776C147.34 14.2776 147.625 14.2081 147.881 14.0749C148.341 13.7749 148.341 13.3449 147.881 13.0749Z" fill="#455A64"/>
<path opacity="0.3" d="M74.0313 4.1149L57.9813 13.3849L41.9213 4.1149C50.7513 -1.0051 65.1313 -1.0051 74.0313 4.1149Z" fill="#24FE41"/>
<path opacity="0.1" d="M74.0313 22.6547L57.9813 13.3847L74.0313 4.11475C82.8713 9.23475 82.8713 17.5647 74.0313 22.6547Z" fill="#24FE41"/>
<path opacity="0.3" d="M74.0313 22.6548C65.1613 27.7748 50.7813 27.7748 41.9213 22.6548L57.9813 13.3848L74.0313 22.6548Z" fill="#24FE41"/>
<path opacity="0.1" d="M57.9513 13.3847L41.8913 22.6547C33.0313 17.5647 33.0313 9.23475 41.8913 4.11475L57.9513 13.3847Z" fill="#24FE41"/>
<path d="M60.3213 14.5651V13.5651H59.5413C59.0434 13.3328 58.5007 13.2124 57.9513 13.2124C57.4019 13.2124 56.8592 13.3328 56.3613 13.5651H55.5813V14.5651C55.5948 14.7787 55.6662 14.9846 55.7877 15.1608C55.9092 15.3369 56.0764 15.4767 56.2713 15.5651C56.791 15.8263 57.3646 15.9624 57.9463 15.9624C58.528 15.9624 59.1016 15.8263 59.6213 15.5651C59.818 15.4781 59.9873 15.3389 60.1106 15.1627C60.234 14.9864 60.3069 14.7798 60.3213 14.5651Z" fill="#24FE41"/>
<path opacity="0.3" d="M60.3213 14.5651V13.5651H59.5413C59.0434 13.3328 58.5007 13.2124 57.9513 13.2124C57.4019 13.2124 56.8592 13.3328 56.3613 13.5651H55.5813V14.5651C55.5948 14.7787 55.6662 14.9846 55.7877 15.1608C55.9092 15.3369 56.0764 15.4767 56.2713 15.5651C56.791 15.8263 57.3646 15.9624 57.9463 15.9624C58.528 15.9624 59.1016 15.8263 59.6213 15.5651C59.818 15.4781 59.9873 15.3389 60.1106 15.1627C60.234 14.9864 60.3069 14.7798 60.3213 14.5651Z" fill="black"/>
<path d="M59.6213 12.5647C59.1029 12.2988 58.5288 12.1602 57.9463 12.1602C57.3637 12.1602 56.7896 12.2988 56.2713 12.5647C56.0594 12.6223 55.8724 12.7479 55.7391 12.9223C55.6057 13.0967 55.5335 13.3102 55.5335 13.5297C55.5335 13.7492 55.6057 13.9626 55.7391 14.137C55.8724 14.3114 56.0594 14.4371 56.2713 14.4947C56.7896 14.7606 57.3637 14.8992 57.9463 14.8992C58.5288 14.8992 59.1029 14.7606 59.6213 14.4947C59.8331 14.4371 60.0201 14.3114 60.1534 14.137C60.2868 13.9626 60.359 13.7492 60.359 13.5297C60.359 13.3102 60.2868 13.0967 60.1534 12.9223C60.0201 12.7479 59.8331 12.6223 59.6213 12.5647Z" fill="#24FE41"/>
<path d="M58.7813 13.0748C58.5215 12.9469 58.2358 12.8804 57.9463 12.8804C57.6567 12.8804 57.371 12.9469 57.1113 13.0748C56.9958 13.098 56.8919 13.1605 56.8172 13.2517C56.7426 13.3428 56.7018 13.457 56.7018 13.5748C56.7018 13.6926 56.7426 13.8068 56.8172 13.898C56.8919 13.9891 56.9958 14.0516 57.1113 14.0748C57.3694 14.2081 57.6557 14.2777 57.9463 14.2777C58.2368 14.2777 58.5231 14.2081 58.7813 14.0748C59.2413 13.7748 59.2413 13.3448 58.7813 13.0748Z" fill="#455A64"/>
<path d="M103.721 40.565C103.304 40.3556 102.843 40.2466 102.376 40.2466C101.909 40.2466 101.449 40.3556 101.031 40.565C100.874 40.6227 100.737 40.7276 100.641 40.8653C100.545 41.003 100.493 41.167 100.493 41.335C100.493 41.503 100.545 41.6669 100.641 41.8047C100.737 41.9424 100.874 42.0472 101.031 42.105C101.444 42.3173 101.902 42.428 102.366 42.428C102.831 42.428 103.288 42.3173 103.701 42.105C103.86 42.0493 103.997 41.9462 104.095 41.8098C104.194 41.6733 104.247 41.51 104.249 41.342C104.252 41.1739 104.202 41.0093 104.108 40.8703C104.013 40.7314 103.878 40.6248 103.721 40.565Z" fill="#FAFAFA"/>
<path d="M29.8346 323.805C29.8346 322.173 29.6106 320.973 29.1626 320.205C28.7146 319.405 27.8186 319.005 26.4746 319.005H25.5146V318.045H38.0906C44.2986 318.045 48.9866 319.421 52.1546 322.173C55.3546 324.925 56.9546 328.765 56.9546 333.693C56.9546 336.861 56.2826 339.661 54.9386 342.093C53.5946 344.493 51.5946 346.365 48.9386 347.709C46.3146 349.053 43.1146 349.725 39.3386 349.725H29.8346V323.805ZM39.1946 348.045C41.5626 348.045 43.6906 347.469 45.5786 346.317C47.4986 345.133 49.0026 343.485 50.0906 341.373C51.1786 339.229 51.7226 336.733 51.7226 333.885C51.7226 331.101 51.1786 328.637 50.0906 326.493C49.0346 324.349 47.5466 322.685 45.6266 321.501C43.7066 320.317 41.5306 319.725 39.0986 319.725C37.5626 319.725 35.9626 319.981 34.2986 320.493V347.421C36.0906 347.837 37.7226 348.045 39.1946 348.045ZM84.5309 350.205C82.8349 350.205 81.3469 349.709 80.0669 348.717C78.8189 347.693 77.4269 345.869 75.8909 343.245L71.0909 335.085H67.7309V349.725H63.4109V323.805C63.4109 322.173 63.1869 320.973 62.7389 320.205C62.2909 319.405 61.3949 319.005 60.0509 319.005H59.0909V318.045H71.5709C74.6109 318.045 77.3629 318.653 79.8269 319.869C82.3229 321.053 83.5709 323.325 83.5709 326.685C83.5709 330.941 81.0109 333.661 75.8909 334.845L80.9309 343.245C82.1149 345.229 83.1709 346.621 84.0989 347.421C85.0589 348.189 86.1629 348.637 87.4109 348.765V349.725C87.1229 349.853 86.7069 349.965 86.1629 350.061C85.6509 350.157 85.1069 350.205 84.5309 350.205ZM71.3309 333.405C72.3229 333.405 73.3949 333.165 74.5469 332.685C75.7309 332.205 76.7229 331.453 77.5229 330.429C78.3549 329.405 78.7709 328.157 78.7709 326.685C78.7709 325.117 78.3549 323.821 77.5229 322.797C76.7229 321.741 75.7309 320.973 74.5469 320.493C73.3949 319.981 72.3229 319.725 71.3309 319.725C70.2109 319.725 69.0109 319.885 67.7309 320.205V332.925C69.0109 333.245 70.2109 333.405 71.3309 333.405ZM103.55 350.685C100.574 350.685 97.9498 349.949 95.6778 348.477C93.4378 347.005 91.7098 344.989 90.4938 342.429C89.2778 339.869 88.6698 337.021 88.6698 333.885C88.6698 330.749 89.2778 327.901 90.4938 325.341C91.7098 322.781 93.4378 320.765 95.6778 319.293C97.9498 317.821 100.574 317.085 103.55 317.085C106.526 317.085 109.134 317.821 111.374 319.293C113.646 320.765 115.39 322.781 116.606 325.341C117.822 327.901 118.43 330.749 118.43 333.885C118.43 337.021 117.822 339.869 116.606 342.429C115.39 344.989 113.646 347.005 111.374 348.477C109.134 349.949 106.526 350.685 103.55 350.685ZM103.55 348.765C105.63 348.765 107.422 348.157 108.926 346.941C110.462 345.725 111.63 344.013 112.43 341.805C113.23 339.565 113.63 336.925 113.63 333.885C113.63 330.845 113.23 328.221 112.43 326.013C111.63 323.773 110.462 322.045 108.926 320.829C107.422 319.613 105.63 319.005 103.55 319.005C101.47 319.005 99.6618 319.613 98.1258 320.829C96.6218 322.045 95.4698 323.773 94.6698 326.013C93.8698 328.221 93.4698 330.845 93.4698 333.885C93.4698 336.925 93.8698 339.565 94.6698 341.805C95.4698 344.013 96.6218 345.725 98.1258 346.941C99.6618 348.157 101.47 348.765 103.55 348.765ZM127.098 349.725H125.178V323.805C125.178 322.269 124.842 321.085 124.17 320.253C123.53 319.421 122.426 319.005 120.858 319.005H120.378V318.045H123.498C124.97 318.045 126.218 318.285 127.242 318.765C128.266 319.245 129.178 319.965 129.978 320.925L146.778 341.805V318.045H148.698V350.205H147.738L127.098 324.525V349.725ZM157.437 323.805C157.437 322.173 157.213 320.973 156.765 320.205C156.317 319.405 155.421 319.005 154.077 319.005H153.117V318.045H173.565C176.285 318.045 177.645 319.325 177.645 321.885V325.485H176.685C176.685 321.805 174.685 319.965 170.685 319.965H161.757V332.445H174.717V334.365H161.757V347.805H170.157C172.365 347.805 174.093 347.405 175.341 346.605C176.589 345.805 177.581 344.445 178.317 342.525L179.277 342.765L177.597 347.325C177.021 348.925 175.821 349.725 173.997 349.725H157.437V323.805Z" fill="url(#paint0_linear_1_1887)"/>
<path d="M14.1515 408.541C12.3915 408.541 10.6635 408.301 8.9675 407.821C7.2715 407.341 5.8795 406.653 4.7915 405.757C3.7355 404.861 3.2075 403.837 3.2075 402.685V397.549H4.0715C4.6155 400.749 5.6715 403.069 7.2395 404.509C8.8075 405.917 10.9675 406.621 13.7195 406.621C15.4475 406.621 16.9195 406.189 18.1355 405.325C19.3835 404.461 20.0075 403.261 20.0075 401.725C20.0075 400.381 19.5915 399.213 18.7595 398.221C17.9275 397.229 16.5835 396.189 14.7275 395.101L8.8235 391.597C6.7755 390.381 5.3195 389.149 4.4555 387.901C3.6235 386.653 3.2075 385.133 3.2075 383.341C3.2075 380.877 4.0555 378.909 5.7515 377.437C7.4795 375.933 9.7355 375.181 12.5195 375.181C14.1515 375.181 15.7675 375.421 17.3675 375.901C18.9675 376.349 20.2795 377.021 21.3035 377.917C22.3595 378.781 22.8875 379.789 22.8875 380.941V386.077H22.0235C21.4795 382.877 20.4395 380.589 18.9035 379.213C17.3995 377.805 15.2715 377.101 12.5195 377.101C11.0475 377.101 9.7515 377.549 8.6315 378.445C7.5115 379.341 6.9515 380.509 6.9515 381.949C6.9515 383.261 7.3515 384.349 8.1515 385.213C8.9835 386.077 10.3595 387.085 12.2795 388.237L18.1835 391.741C20.3595 393.053 21.8955 394.269 22.7915 395.389C23.6875 396.509 24.1355 397.933 24.1355 399.661C24.1355 402.349 23.2395 404.509 21.4475 406.141C19.6555 407.741 17.2235 408.541 14.1515 408.541ZM30.8893 381.805C30.8893 380.173 30.6653 378.973 30.2173 378.205C29.7693 377.405 28.8733 377.005 27.5293 377.005H26.5693V376.045H30.8893C32.0733 376.045 32.9533 376.205 33.5293 376.525C34.1373 376.813 34.5693 377.357 34.8253 378.157C35.0813 378.957 35.2093 380.173 35.2093 381.805V390.445H49.6093V376.045H53.9293V401.965C53.9293 403.597 54.1533 404.813 54.6013 405.613C55.0493 406.381 55.9453 406.765 57.2893 406.765H58.2493V407.725H53.9293C52.7453 407.725 51.8493 407.581 51.2413 407.293C50.6653 406.973 50.2493 406.413 49.9933 405.613C49.7373 404.813 49.6093 403.597 49.6093 401.965V392.365H35.2093V407.725H30.8893V381.805ZM67.2665 407.725C66.0825 407.725 65.1865 407.581 64.5785 407.293C64.0025 406.973 63.5865 406.413 63.3305 405.613C63.0745 404.813 62.9465 403.597 62.9465 401.965V376.045H67.2665V401.965C67.2665 403.597 67.4905 404.813 67.9385 405.613C68.3865 406.381 69.2825 406.765 70.6265 406.765H71.5865V407.725H67.2665ZM77.042 381.805C77.042 380.173 76.818 378.973 76.37 378.205C75.922 377.405 75.026 377.005 73.682 377.005H72.722V376.045H85.202C88.274 376.045 91.042 376.701 93.506 378.013C95.97 379.325 97.202 381.869 97.202 385.645C97.202 388.141 96.562 390.061 95.282 391.405C94.002 392.749 92.562 393.645 90.962 394.093C89.394 394.541 87.954 394.765 86.642 394.765H81.362V407.725H77.042V381.805ZM84.962 393.085C85.986 393.085 87.074 392.829 88.226 392.317C89.378 391.773 90.354 390.925 91.154 389.773C91.986 388.621 92.402 387.165 92.402 385.405C92.402 383.645 91.986 382.189 91.154 381.037C90.354 379.885 89.378 379.053 88.226 378.541C87.074 377.997 85.986 377.725 84.962 377.725C83.842 377.725 82.642 377.885 81.362 378.205V392.605C82.642 392.925 83.842 393.085 84.962 393.085ZM103.118 381.805C103.118 380.173 102.894 378.973 102.446 378.205C101.998 377.405 101.102 377.005 99.7584 377.005H98.7984V376.045H111.278C114.35 376.045 117.118 376.701 119.582 378.013C122.046 379.325 123.278 381.869 123.278 385.645C123.278 388.141 122.638 390.061 121.358 391.405C120.078 392.749 118.638 393.645 117.038 394.093C115.47 394.541 114.03 394.765 112.718 394.765H107.438V407.725H103.118V381.805ZM111.038 393.085C112.062 393.085 113.15 392.829 114.302 392.317C115.454 391.773 116.43 390.925 117.23 389.773C118.062 388.621 118.478 387.165 118.478 385.405C118.478 383.645 118.062 382.189 117.23 381.037C116.43 379.885 115.454 379.053 114.302 378.541C113.15 377.997 112.062 377.725 111.038 377.725C109.918 377.725 108.718 377.885 107.438 378.205V392.605C108.718 392.925 109.918 393.085 111.038 393.085ZM132.699 407.725C131.515 407.725 130.619 407.581 130.011 407.293C129.435 406.973 129.019 406.413 128.763 405.613C128.507 404.813 128.379 403.597 128.379 401.965V376.045H132.699V401.965C132.699 403.597 132.923 404.813 133.371 405.613C133.819 406.381 134.715 406.765 136.059 406.765H137.019V407.725H132.699ZM144.586 407.725H142.666V381.805C142.666 380.269 142.33 379.085 141.658 378.253C141.018 377.421 139.914 377.005 138.346 377.005H137.866V376.045H140.986C142.458 376.045 143.706 376.285 144.73 376.765C145.754 377.245 146.666 377.965 147.466 378.925L164.266 399.805V376.045H166.186V408.205H165.226L144.586 382.525V407.725ZM188.27 408.685C185.134 408.685 182.318 407.917 179.822 406.381C177.358 404.845 175.422 402.765 174.014 400.141C172.638 397.485 171.95 394.573 171.95 391.405C171.95 388.365 172.558 385.613 173.774 383.149C174.99 380.653 176.718 378.685 178.958 377.245C181.23 375.805 183.854 375.085 186.83 375.085C189.582 375.085 191.95 375.453 193.934 376.189C195.95 376.893 197.422 377.805 198.35 378.925C198.862 379.565 199.182 380.413 199.31 381.469C199.47 382.525 199.55 383.837 199.55 385.405H198.59C197.982 382.589 196.83 380.493 195.134 379.117C193.438 377.709 191.15 377.005 188.27 377.005C185.678 377.005 183.518 377.693 181.79 379.069C180.062 380.413 178.782 382.173 177.95 384.349C177.15 386.525 176.75 388.877 176.75 391.405C176.75 396.813 177.806 400.733 179.918 403.165C182.03 405.565 184.814 406.765 188.27 406.765C189.902 406.765 191.294 406.621 192.446 406.333C193.598 406.045 194.686 405.629 195.71 405.085V396.733C195.71 395.645 195.886 394.701 196.238 393.901C196.59 393.101 197.342 392.445 198.494 391.933C199.678 391.389 201.39 391.117 203.63 391.117V392.077C202.19 392.077 201.23 392.445 200.75 393.181C200.27 393.917 200.03 395.069 200.03 396.637V405.661C198.302 406.717 196.494 407.485 194.606 407.965C192.718 408.445 190.606 408.685 188.27 408.685Z" fill="url(#paint1_linear_1_1887)"/>
<defs>
<linearGradient id="paint0_linear_1_1887" x1="81.62" y1="381.628" x2="94.4977" y2="294.795" gradientUnits="userSpaceOnUse">
<stop stop-color="#FDFC47"/>
<stop offset="1" stop-color="#24FE41"/>
</linearGradient>
<linearGradient id="paint1_linear_1_1887" x1="75.1954" y1="439.628" x2="85.1318" y2="352.012" gradientUnits="userSpaceOnUse">
<stop stop-color="#FDFC47"/>
<stop offset="1" stop-color="#24FE41"/>
</linearGradient>
</defs>
</svg>
