<svg width="21" height="20" viewBox="0 0 21 20" fill="none" xmlns="http://www.w3.org/2000/svg">
<path fill-rule="evenodd" clip-rule="evenodd" d="M9.94 0H11.06C16.2736 0 20.5 4.22643 20.5 9.44V10.56C20.5 15.7736 16.2736 20 11.06 20H9.94C4.72643 20 0.5 15.7736 0.5 10.56V9.44C0.5 4.22643 4.72643 0 9.94 0ZM11.06 18.5C15.4315 18.4673 18.9673 14.9315 19 10.56V9.44C18.9673 5.06846 15.4315 1.53267 11.06 1.5H9.94C5.56846 1.53267 2.03267 5.06846 2 9.44V10.56C2.03267 14.9315 5.56846 18.4673 9.94 18.5H11.06Z" fill="#3C3C43" fill-opacity="0.6"/>
<path d="M14.5 9.25H11.25V6C11.25 5.58579 10.9142 5.25 10.5 5.25C10.0858 5.25 9.75 5.58579 9.75 6V9.25H6.5C6.08579 9.25 5.75 9.58579 5.75 10C5.75 10.4142 6.08579 10.75 6.5 10.75H9.75V14C9.75 14.4142 10.0858 14.75 10.5 14.75C10.9142 14.75 11.25 14.4142 11.25 14V10.75H14.5C14.9142 10.75 15.25 10.4142 15.25 10C15.25 9.58579 14.9142 9.25 14.5 9.25Z" fill="#3C3C43" fill-opacity="0.6"/>
</svg>
